<svg width="44" height="40" viewBox="0 0 44 40" fill="none" xmlns="http://www.w3.org/2000/svg">
<path d="M17.8971 16.0538L17.9697 15.9697C18.2359 15.7034 18.6526 15.6792 18.9462 15.8971L19.0303 15.9697L22 18.939L24.9697 15.9697C25.2626 15.6768 25.7374 15.6768 26.0303 15.9697C26.3232 16.2626 26.3232 16.7374 26.0303 17.0303L23.061 20L26.0303 22.9697C26.2966 23.2359 26.3208 23.6526 26.1029 23.9462L26.0303 24.0303C25.7641 24.2966 25.3474 24.3208 25.0538 24.1029L24.9697 24.0303L22 21.061L19.0303 24.0303C18.7374 24.3232 18.2626 24.3232 17.9697 24.0303C17.6768 23.7374 17.6768 23.2626 17.9697 22.9697L20.939 20L17.9697 17.0303C17.7034 16.7641 17.6792 16.3474 17.8971 16.0538L17.9697 15.9697L17.8971 16.0538Z" fill="#7F85F5"/>
<rect x="0.5" y="0.5" width="43" height="39" rx="7.5" stroke="#7F85F5"/>
</svg>
