<svg width="24" height="24" viewBox="0 0 24 24" fill="none" xmlns="http://www.w3.org/2000/svg">
<path d="M6.75 22C6.33579 22 6 21.6642 6 21.25C6 20.8703 6.28215 20.5565 6.64823 20.5068L6.75 20.5L8.499 20.4995V18.0015L4.25 18.0018C3.05914 18.0018 2.08436 17.0766 2.00519 15.9058L2 15.7518V5.24951C2 4.05865 2.92516 3.08387 4.09595 3.0047L4.25 2.99951H19.7488C20.9397 2.99951 21.9145 3.92467 21.9936 5.09546L21.9988 5.24951V15.7518C21.9988 16.9427 21.0737 17.9174 19.9029 17.9966L19.7488 18.0018L15.499 18.0015V20.4995L17.25 20.5C17.6642 20.5 18 20.8357 18 21.25C18 21.6296 17.7178 21.9434 17.3518 21.9931L17.25 22H6.75ZM13.998 18.0015H9.998L9.999 20.5H13.999L13.998 18.0015Z" fill="#7F85F5"/>
</svg>
