<svg width="40" height="40" viewBox="0 0 40 40" fill="none" xmlns="http://www.w3.org/2000/svg">
<rect width="40" height="40" rx="20" fill="#333333"/>
<rect width="24" height="24" transform="translate(8.00024 8.00024)" fill="#333333"/>
<path d="M10.0002 16.7502C10.0002 13.0223 13.0223 10.0002 16.7502 10.0002C20.2247 10.0002 23.086 12.6253 23.459 16.0002H20.2502C17.903 16.0002 16.0002 17.903 16.0002 20.2502V23.459C12.6253 23.086 10.0002 20.2247 10.0002 16.7502ZM20.2502 17.0002C18.4553 17.0002 17.0002 18.4553 17.0002 20.2502V26.7502C17.0002 28.5452 18.4553 30.0002 20.2502 30.0002H26.7502C28.5452 30.0002 30.0002 28.5452 30.0002 26.7502V20.2502C30.0002 18.4553 28.5452 17.0002 26.7502 17.0002H20.2502Z" fill="#999999"/>
</svg>
