<svg width="114" height="114" viewBox="0 0 114 114" fill="none" xmlns="http://www.w3.org/2000/svg">
<g clip-path="url(#clip0_180_96283)">
<path d="M70.1274 45.9941L8.76347 8.32872L33.4316 77.5387L70.1274 45.9941Z" fill="#FFD566"/>
<mask id="mask0_180_96283" style="mask-type:alpha" maskUnits="userSpaceOnUse" x="-5" y="-2" width="66" height="68">
<path d="M27.059 65.7787L60.8168 36.7598L59.1658 34.8392L25.4081 63.8581L27.059 65.7787Z" fill="#FFC630"/>
<path d="M22.475 60.1712L56.2327 31.1523L54.5817 29.2318L20.824 58.2507L22.475 60.1712Z" fill="#FFC630"/>
<path d="M17.7573 54.679L51.515 25.6602L49.8641 23.7396L16.1064 52.7585L17.7573 54.679Z" fill="#FFC630"/>
<path d="M12.5314 48.3529L46.2892 19.334L44.6382 17.4134L10.8805 46.4324L12.5314 48.3529Z" fill="#FFC630"/>
<path d="M7.17952 42.1188L40.9373 13.0999L39.2861 11.179L5.52835 40.198L7.17952 42.1188Z" fill="#FFC630"/>
<path d="M2.16377 36.2892L35.9215 7.27026L34.2703 5.34946L0.5126 34.3684L2.16377 36.2892Z" fill="#FFC630"/>
<path d="M-3.11553 30.1476L30.6422 1.12866L28.991 -0.792146L-4.7667 28.2268L-3.11553 30.1476Z" fill="#FFC630"/>
<path d="M-3.17117 19.5188L36.1318 65.24L38.1791 63.4802L-1.12395 17.7589L-3.17117 19.5188Z" fill="#FFC630"/>
<path d="M2.28366 14.8264L41.5867 60.5476L43.6339 58.7878L4.33088 13.0665L2.28366 14.8264Z" fill="#FFC630"/>
<path d="M7.74252 10.1333L47.0455 55.8545L49.0928 54.0947L9.78974 8.37343L7.74252 10.1333Z" fill="#FFC630"/>
<path d="M13.2052 5.44015L52.5082 51.1614L54.5554 49.4015L15.2524 3.68031L13.2052 5.44015Z" fill="#FFC630"/>
<path d="M18.664 0.74728L57.967 46.4685L60.0143 44.7087L20.7113 -1.01256L18.664 0.74728Z" fill="#FFC630"/>
</mask>
<g mask="url(#mask0_180_96283)">
<path d="M70.1483 45.9937L8.78435 8.32823L33.4525 77.5383L70.1483 45.9937Z" fill="#FFC630"/>
</g>
<path d="M99.429 78.2028C98.5339 77.6359 98.8024 76.2336 99.8467 76.0247C103.517 75.2788 105.934 73.9062 106.083 72.1458C106.351 68.9831 99.2201 65.7905 90.1496 65.0147C81.079 64.2389 73.5003 66.1485 73.2318 69.3113C73.2318 69.4605 73.2318 69.6395 73.2616 69.7887C70.994 69.4605 68.6368 69.1621 66.22 68.9532C43.8718 67.0138 25.1936 71.758 24.5372 79.5455C24.4775 80.1721 23.9405 80.6793 23.3139 80.6793C16.2126 80.7092 10.812 82.4994 10.6032 85.1549C10.3346 88.3177 17.4658 91.5103 26.5363 92.2861C28.8935 92.4949 31.1313 92.4949 33.1901 92.3756C36.7407 92.1369 40.2913 92.4949 43.6928 93.4796C49.5409 95.2101 56.4035 96.4931 63.8032 97.1197C86.1514 99.0591 104.83 94.315 105.486 86.5275C105.755 83.6929 103.517 80.7987 99.429 78.2028Z" fill="#7DA4FA"/>
<path d="M90.0515 75.3372C90.9467 82.349 77.9376 89.7785 61.0198 91.9268C44.102 94.0751 29.6607 90.1067 28.7656 83.095C27.8705 76.0832 40.8796 68.6537 57.7974 66.5054C74.7151 64.3571 89.1564 68.3255 90.0515 75.3372Z" fill="url(#paint0_radial_180_96283)"/>
<mask id="mask1_180_96283" style="mask-type:alpha" maskUnits="userSpaceOnUse" x="-5" y="-2" width="66" height="68">
<path d="M27.059 65.7787L60.8168 36.7598L59.1658 34.8392L25.4081 63.8581L27.059 65.7787Z" fill="#FFC630"/>
<path d="M22.475 60.1712L56.2327 31.1523L54.5817 29.2318L20.824 58.2507L22.475 60.1712Z" fill="#FFC630"/>
<path d="M17.7573 54.679L51.515 25.6602L49.8641 23.7396L16.1064 52.7585L17.7573 54.679Z" fill="#FFC630"/>
<path d="M12.5314 48.3529L46.2892 19.334L44.6382 17.4134L10.8805 46.4324L12.5314 48.3529Z" fill="#FFC630"/>
<path d="M7.17952 42.1188L40.9373 13.0999L39.2861 11.179L5.52835 40.198L7.17952 42.1188Z" fill="#FFC630"/>
<path d="M2.16377 36.2892L35.9215 7.27026L34.2703 5.34946L0.5126 34.3684L2.16377 36.2892Z" fill="#FFC630"/>
<path d="M-3.11553 30.1476L30.6422 1.12866L28.991 -0.792146L-4.7667 28.2268L-3.11553 30.1476Z" fill="#FFC630"/>
<path d="M-3.17117 19.5188L36.1318 65.24L38.1791 63.4802L-1.12395 17.7589L-3.17117 19.5188Z" fill="#FFC630"/>
<path d="M2.28366 14.8264L41.5867 60.5476L43.6339 58.7878L4.33088 13.0665L2.28366 14.8264Z" fill="#FFC630"/>
<path d="M7.74252 10.1333L47.0455 55.8545L49.0928 54.0947L9.78974 8.37343L7.74252 10.1333Z" fill="#FFC630"/>
<path d="M13.2052 5.44015L52.5082 51.1614L54.5554 49.4015L15.2524 3.68031L13.2052 5.44015Z" fill="#FFC630"/>
<path d="M18.664 0.74728L57.967 46.4685L60.0143 44.7087L20.7113 -1.01256L18.664 0.74728Z" fill="#FFC630"/>
</mask>
<g mask="url(#mask1_180_96283)">
<path d="M70.1483 45.9937L8.78435 8.32823L33.4525 77.5383L70.1483 45.9937Z" fill="#FFC630"/>
</g>
<path d="M49.4769 102.37C49.6695 100.137 44.635 97.8791 38.2321 97.3269C31.8292 96.7746 26.4825 98.1369 26.2899 100.37C26.0973 102.603 31.1318 104.86 37.5347 105.413C43.9376 105.965 49.2843 104.603 49.4769 102.37Z" fill="#7DA4FA"/>
<path d="M35.8085 75.9357L68.4501 47.8762C70.2563 46.3236 70.4619 43.6008 68.9092 41.7946L68.8646 41.7427C67.3119 39.9365 64.5892 39.731 62.783 41.2837L30.1414 69.3432C28.3352 70.8958 28.1295 73.6186 29.6822 75.4248L29.7268 75.4767C31.2795 77.2829 34.0023 77.4884 35.8085 75.9357Z" fill="#FFD566"/>
<path d="M35.8085 75.9357L68.4501 47.8762C70.2563 46.3236 70.4619 43.6008 68.9092 41.7946L68.8646 41.7427C67.3119 39.9365 64.5892 39.731 62.783 41.2837L30.1414 69.3432C28.3352 70.8958 28.1295 73.6186 29.6822 75.4248L29.7268 75.4767C31.2795 77.2829 34.0023 77.4884 35.8085 75.9357Z" fill="#FFD566"/>
<path d="M53.1627 66.5032L52.7972 66.3196C52.7423 66.5912 52.665 66.8577 52.5661 67.1166L53.1627 66.5032Z" fill="#FFD590"/>
<path d="M51.5414 62.4159L51.4923 62.3681C50.6723 61.5707 49.5693 61.1316 48.4256 61.1475C47.282 61.1634 46.1914 61.633 45.3939 62.4529L45.2746 62.5756L52.7765 66.3006C52.9063 65.6014 52.8613 64.8809 52.6458 64.2033C52.4304 63.5256 52.0511 62.9117 51.5414 62.4159Z" fill="#FFD590"/>
<path d="M33.2196 77.2896C39.9036 84.5923 42.2066 82.189 69.9155 82.1889C97.6244 82.1889 86.1641 47.1988 69.9155 45.745L33.2196 77.2896Z" fill="url(#paint1_linear_180_96283)"/>
</g>
<defs>
<radialGradient id="paint0_radial_180_96283" cx="0" cy="0" r="1" gradientUnits="userSpaceOnUse" gradientTransform="translate(59.41 79.1698) rotate(-7.2128) scale(30.8988 12.8117)">
<stop stop-color="#3E69DE"/>
<stop offset="0.744" stop-color="#6893F7"/>
<stop offset="1" stop-color="#7DA4FA"/>
</radialGradient>
<linearGradient id="paint1_linear_180_96283" x1="85.5296" y1="29.0447" x2="36.2381" y2="85.168" gradientUnits="userSpaceOnUse">
<stop offset="0.390625" stop-color="#B1CBFC"/>
<stop offset="1" stop-color="#6893F7"/>
</linearGradient>
<clipPath id="clip0_180_96283">
<rect width="114" height="114" fill="white"/>
</clipPath>
</defs>
</svg>
