<svg width="76" height="76" viewBox="0 0 76 76" fill="none" xmlns="http://www.w3.org/2000/svg">
<path d="M15.4375 68.875H60.5625C61.2156 68.875 61.75 68.3406 61.75 67.6875V21.375H51.0625C49.0984 21.375 47.5 19.7766 47.5 17.8125V7.125H15.4375C14.7844 7.125 14.25 7.65938 14.25 8.3125V67.6875C14.25 68.3406 14.7844 68.875 15.4375 68.875Z" fill="white"/>
<path d="M60.0709 19.0001L49.875 8.8042V17.8126C49.875 18.4657 50.4094 19.0001 51.0625 19.0001H60.0709Z" fill="white"/>
<path opacity="0.64" fill-rule="evenodd" clip-rule="evenodd" d="M63.08 18.6532L50.2217 5.79263C49.5524 5.1274 48.6479 4.75279 47.7043 4.75H15.4375C13.4734 4.75 11.875 6.34837 11.875 8.3125V67.6875C11.875 69.6516 13.4734 71.25 15.4375 71.25H60.5625C62.5266 71.25 64.125 69.6516 64.125 67.6875V21.1707C64.125 20.2207 63.7545 19.3254 63.08 18.6532ZM49.875 8.80412L60.0709 19H51.0625C50.4072 18.9987 49.8763 18.4678 49.875 17.8125V8.80412ZM15.4375 68.875H60.5625C61.2156 68.875 61.75 68.3406 61.75 67.6875V21.375H51.0625C49.0984 21.375 47.5 19.7766 47.5 17.8125V7.125H15.4375C14.7844 7.125 14.25 7.65937 14.25 8.3125V67.6875C14.2513 68.3428 14.7822 68.8737 15.4375 68.875Z" fill="#605E5C"/>
<path fill-rule="evenodd" clip-rule="evenodd" d="M55.8125 30.875H20.1875C19.5317 30.875 19 30.3433 19 29.6875C19 29.0317 19.5317 28.5 20.1875 28.5H55.8125C56.4683 28.5 57 29.0317 57 29.6875C57 30.3433 56.4683 30.875 55.8125 30.875ZM55.8125 35.625H20.1875C19.5317 35.625 19 35.0933 19 34.4375C19 33.7817 19.5317 33.25 20.1875 33.25H55.8125C56.4683 33.25 57 33.7817 57 34.4375C57 35.0933 56.4683 35.625 55.8125 35.625ZM20.1875 40.375H55.8125C56.4683 40.375 57 39.8433 57 39.1875C57 38.5317 56.4683 38 55.8125 38H20.1875C19.5317 38 19 38.5317 19 39.1875C19 39.8433 19.5317 40.375 20.1875 40.375Z" fill="#C8C6C4"/>
<path fill-rule="evenodd" clip-rule="evenodd" d="M30.875 45.125H45.125C47.7484 45.125 49.875 47.2516 49.875 49.875V59.375C49.875 61.9984 47.7484 64.125 45.125 64.125H30.875C28.2516 64.125 26.125 61.9984 26.125 59.375V49.875C26.125 47.2516 28.2516 45.125 30.875 45.125ZM47.5 49.875C47.5 48.5664 46.4336 47.5 45.125 47.5H30.875C29.5664 47.5 28.5 48.5664 28.5 49.875V59.375C28.5 60.6836 29.5664 61.75 30.875 61.75H45.125C46.4336 61.75 47.5 60.6836 47.5 59.375V49.875ZM11.875 61.75H23.1562C23.4842 61.75 23.75 61.4842 23.75 61.1562V48.0938C23.75 47.7658 23.4842 47.5 23.1562 47.5H11.875C10.5633 47.5 9.5 48.5633 9.5 49.875V59.375C9.5 60.6867 10.5633 61.75 11.875 61.75ZM52.8438 47.5H64.125C65.4367 47.5 66.5 48.5633 66.5 49.875V59.375C66.5 60.6867 65.4367 61.75 64.125 61.75H52.8438C52.516 61.75 52.25 61.484 52.25 61.1562V48.0938C52.25 47.7658 52.5158 47.5 52.8438 47.5Z" fill="#D65532"/>
</svg>
