<svg width="24" height="24" viewBox="0 0 24 24" fill="none" xmlns="http://www.w3.org/2000/svg">
<path d="M2.75061 16.4995L21.2494 16.4995C21.6636 16.4995 21.9994 16.8353 21.9994 17.2495C21.9994 17.6292 21.7172 17.943 21.3511 17.9926L21.2494 17.9995L2.75061 17.9995C2.3364 17.9995 2.00061 17.6637 2.00061 17.2495C2.00061 16.8698 2.28277 16.556 2.64884 16.5063L2.75061 16.4995L21.2494 16.4995L2.75061 16.4995ZM18.25 5C19.2165 5 20 5.7835 20 6.75L20 14.2503C20 15.2168 19.2165 16.0003 18.25 16.0003L5.74999 16.0003C4.78349 16.0003 3.99999 15.2168 3.99999 14.2503L3.99999 6.75C3.99999 5.7835 4.78349 5 5.74998 5L18.25 5ZM18.25 6.5L5.74999 6.5C5.61191 6.5 5.49999 6.61193 5.49999 6.75L5.49999 14.2503C5.49999 14.3884 5.61192 14.5003 5.74999 14.5003L18.25 14.5003C18.3881 14.5003 18.5 14.3884 18.5 14.2503L18.5 6.75C18.5 6.61193 18.3881 6.5 18.25 6.5Z" fill="#D6D6D6"/>
</svg>
