<svg width="24" height="24" viewBox="0 0 24 24" fill="none" xmlns="http://www.w3.org/2000/svg">
<path d="M12 2C12.918 2 13.8034 2.12044 14.6562 2.36133C15.5091 2.5957 16.3034 2.93099 17.0391 3.36719C17.7812 3.80339 18.4551 4.32747 19.0605 4.93945C19.6725 5.54492 20.1966 6.21875 20.6328 6.96094C21.069 7.69661 21.4043 8.49089 21.6387 9.34375C21.8796 10.1966 22 11.082 22 12C22 12.918 21.8796 13.8034 21.6387 14.6562C21.4043 15.5091 21.069 16.3066 20.6328 17.0488C20.1966 17.7845 19.6725 18.4583 19.0605 19.0703C18.4551 19.6758 17.7812 20.1966 17.0391 20.6328C16.3034 21.069 15.5091 21.4076 14.6562 21.6484C13.8034 21.8828 12.918 22 12 22C11.082 22 10.1966 21.8828 9.34375 21.6484C8.49089 21.4076 7.69336 21.069 6.95117 20.6328C6.21549 20.1966 5.54167 19.6758 4.92969 19.0703C4.32422 18.4583 3.80339 17.7845 3.36719 17.0488C2.93099 16.3066 2.59245 15.5091 2.35156 14.6562C2.11719 13.8034 2 12.918 2 12C2 11.082 2.11719 10.1966 2.35156 9.34375C2.59245 8.49089 2.93099 7.69661 3.36719 6.96094C3.80339 6.21875 4.32422 5.54492 4.92969 4.93945C5.54167 4.32747 6.21549 3.80339 6.95117 3.36719C7.69336 2.93099 8.49089 2.5957 9.34375 2.36133C10.1966 2.12044 11.082 2 12 2ZM12 17.2148C12.5013 17.2148 12.9863 17.1465 13.4551 17.0098C13.9303 16.8665 14.373 16.6647 14.7832 16.4043C15.1934 16.1439 15.5645 15.8314 15.8965 15.4668C16.2285 15.0957 16.502 14.6855 16.7168 14.2363L15.1934 13.5137C15.0436 13.8197 14.8581 14.0964 14.6367 14.3438C14.4154 14.5911 14.1647 14.8027 13.8848 14.9785C13.6048 15.1543 13.3053 15.291 12.9863 15.3887C12.6673 15.4863 12.3385 15.5352 12 15.5352C11.5312 15.5352 11.082 15.444 10.6523 15.2617C10.2292 15.0794 9.85156 14.8255 9.51953 14.5H10.75V13.25H7V17H8.25V15.6133C8.73828 16.1211 9.30794 16.515 9.95898 16.7949C10.61 17.0749 11.2904 17.2148 12 17.2148ZM17 10.75V7H15.75V8.38672C15.2617 7.87891 14.6921 7.48503 14.041 7.20508C13.39 6.92513 12.7096 6.78516 12 6.78516C11.4987 6.78516 11.0104 6.85677 10.5352 7C10.0664 7.13672 9.62695 7.33529 9.2168 7.5957C8.80664 7.85612 8.43555 8.17188 8.10352 8.54297C7.77148 8.90755 7.49805 9.31445 7.2832 9.76367L8.80664 10.4863C8.94987 10.1803 9.13216 9.90365 9.35352 9.65625C9.58138 9.40885 9.83529 9.19727 10.1152 9.02148C10.3952 8.8457 10.6947 8.70898 11.0137 8.61133C11.3327 8.51367 11.6615 8.46484 12 8.46484C12.4688 8.46484 12.9147 8.55599 13.3379 8.73828C13.7676 8.92057 14.1484 9.17448 14.4805 9.5H13.25V10.75H17Z" fill="#F2C661"/>
</svg>
