<svg width="40" height="40" viewBox="0 0 40 40" fill="none" xmlns="http://www.w3.org/2000/svg">
<rect width="40" height="40" rx="20" fill="#063004"/>
<path d="M20 10C25.5228 10 30 14.4772 30 20C30 25.5228 25.5228 30 20 30C14.4772 30 10 25.5228 10 20C10 14.4772 14.4772 10 20 10ZM23.2197 16.9697L18.75 21.4393L16.7803 19.4697C16.4874 19.1768 16.0126 19.1768 15.7197 19.4697C15.4268 19.7626 15.4268 20.2374 15.7197 20.5303L18.2197 23.0303C18.5126 23.3232 18.9874 23.3232 19.2803 23.0303L24.2803 18.0303C24.5732 17.7374 24.5732 17.2626 24.2803 16.9697C23.9874 16.6768 23.5126 16.6768 23.2197 16.9697Z" fill="#4DA64D"/>
</svg>
