<svg width="114" height="114" viewBox="0 0 114 114" fill="none" xmlns="http://www.w3.org/2000/svg">
<g clip-path="url(#clip0_180_96360)">
<path d="M85.5986 75.2573C68.7501 81.781 47.7981 86.7592 30.8049 92.691C30.325 92.8672 29.7985 92.8689 29.3175 92.6957C28.8366 92.5226 28.4319 92.1857 28.1744 91.7441C18.5796 75.9215 14.5483 42.4219 13.7395 34.162C13.6787 33.6428 13.8086 33.1193 14.105 32.6886C14.4013 32.258 14.844 31.9497 15.3506 31.8209L69.6314 16.6559C69.9361 16.5668 70.2566 16.545 70.5706 16.592C70.8846 16.6391 71.1847 16.7539 71.4499 16.9284C71.7152 17.1029 71.9393 17.333 72.1068 17.6028C72.2742 17.8726 72.381 18.1756 72.4197 18.4908C73.4456 27.0399 77.398 55.1142 86.7758 72.1073C86.9162 72.3896 86.997 72.6978 87.0134 73.0127C87.0298 73.3275 86.9812 73.6424 86.8709 73.9378C86.7605 74.2331 86.5906 74.5026 86.3717 74.7296C86.1529 74.9566 85.8897 75.1362 85.5986 75.2573Z" fill="url(#paint0_linear_180_96360)"/>
<path d="M59.153 85.957L56.5225 89.8371C56.4262 89.9735 56.3577 90.1276 56.321 90.2905C56.2842 90.4534 56.2799 90.6219 56.3083 90.7865C56.3367 90.9511 56.3972 91.1085 56.4864 91.2497C56.5757 91.3909 56.6918 91.513 56.8283 91.6093C56.9647 91.7056 57.1188 91.7741 57.2817 91.8108C57.4446 91.8476 57.6132 91.8519 57.7777 91.8235C57.9423 91.7951 58.0997 91.7346 58.2409 91.6454C58.3821 91.5562 58.5043 91.44 58.6006 91.3036L61.2311 87.4169L59.153 85.957Z" fill="#3E69DE"/>
<path d="M60.2597 76.7961L56.6691 88.2257L60.1808 90.5669L69.3876 83.024L60.2597 76.7961Z" fill="#FFE192"/>
<path d="M101.785 37.5357L71.7509 82.6556C71.5124 82.9983 71.1507 83.2355 70.7413 83.3177C70.3319 83.3998 69.9067 83.3204 69.5544 83.0963L60.032 76.7961C59.6919 76.5555 59.4568 76.1939 59.3749 75.7855C59.2929 75.3771 59.3704 74.9528 59.5914 74.5997L89.6253 29.4863C90.6945 27.8738 92.3604 26.7521 94.2566 26.3679C96.1528 25.9838 98.1239 26.3686 99.7364 27.4378C101.349 28.5069 102.471 30.1729 102.855 32.0691C103.239 33.9652 102.854 35.9364 101.785 37.5488V37.5357Z" fill="url(#paint1_linear_180_96360)"/>
<path d="M64.3883 66.6885L60.6135 72.3572L73.4833 80.9064L77.2581 75.2312L64.3883 66.6885Z" fill="#FFE192"/>
<path d="M67.2838 62.3215L65.9027 64.3996L78.7725 72.9488L80.147 70.8772L67.2838 62.3215Z" fill="#FFE192"/>
<path d="M50.3666 65.8069C49.881 65.7896 49.4052 65.6662 48.9724 65.4453L36.0829 58.6321C35.7344 58.4582 35.424 58.2167 35.1699 57.9216C34.9158 57.6265 34.723 57.2838 34.6028 56.9133C34.4825 56.5429 34.4373 56.1523 34.4696 55.7642C34.502 55.3761 34.6113 54.9983 34.7912 54.6529C34.9711 54.3075 35.218 54.0013 35.5175 53.7523C35.8169 53.5034 36.163 53.3166 36.5354 53.2028C36.9079 53.089 37.2993 53.0505 37.6868 53.0896C38.0742 53.1286 38.4501 53.2445 38.7923 53.4304L48.8277 58.6914L57.9096 36.9896C58.2318 36.3133 58.8026 35.7874 59.5031 35.5218C60.2036 35.2562 60.9796 35.2713 61.6692 35.564C62.3588 35.8566 62.9088 36.4042 63.2045 37.0925C63.5002 37.7809 63.5186 38.5568 63.2561 39.2584L53.076 64.0182C52.7507 64.7572 52.1451 65.3367 51.3925 65.6293C51.0652 65.7541 50.7168 65.8144 50.3666 65.8069Z" fill="white"/>
<path d="M79.1448 7.09577C77.7277 6.22368 76.7466 4.80655 76.365 3.17139L75.9835 3.2804L75.6019 3.38941C76.365 6.76874 74.2393 10.1481 70.86 10.9656L70.969 11.3472L71.078 11.7287C74.4573 10.9656 77.8367 13.0914 78.6543 16.4707L79.4173 16.3072C78.6542 12.9278 80.78 9.54851 84.1593 8.73093L83.9958 7.96785C82.2516 8.24038 80.5619 7.96785 79.1448 7.09577Z" fill="#FFC630"/>
<path d="M36.7476 101.164C35.6818 99.5239 35.2719 97.6383 35.6818 95.7526L35.2719 95.6706L34.862 95.5886C34.0421 99.442 30.2707 101.984 26.4174 101.246L26.3354 101.656L26.2534 102.066C30.1068 102.885 32.6483 106.657 31.9105 110.51L32.8123 110.674C33.6322 106.821 37.4035 104.279 41.2569 105.017L41.4209 104.115C39.4532 103.869 37.8135 102.803 36.7476 101.164Z" fill="#FFC630"/>
<path d="M18.0164 88.6552C16.904 87.8851 16.1339 86.6872 15.7917 85.3181L15.4494 85.4037L15.1071 85.4892C15.6205 88.3129 13.8237 91.051 11 91.5644L11.0856 91.9067L11.1711 92.2489C13.9948 91.7355 16.7329 93.5324 17.2463 96.356L17.8452 96.2705C17.3318 93.4468 19.1287 90.7087 21.9524 90.1953L21.8668 89.5964C20.5833 89.7675 19.2143 89.4253 18.0164 88.6552Z" fill="#FFC630"/>
</g>
<defs>
<linearGradient id="paint0_linear_180_96360" x1="14.0025" y1="27.178" x2="86.447" y2="69.1019" gradientUnits="userSpaceOnUse">
<stop stop-color="#4977EB"/>
<stop offset="0.283449" stop-color="#688EEC"/>
<stop offset="0.650174" stop-color="#7DA4FA"/>
<stop offset="1" stop-color="#95B7FC"/>
</linearGradient>
<linearGradient id="paint1_linear_180_96360" x1="73.3555" y1="45.5259" x2="91.1379" y2="63.3082" gradientUnits="userSpaceOnUse">
<stop stop-color="#FDD88E"/>
<stop offset="0.02" stop-color="#FDD78C"/>
<stop offset="0.48" stop-color="#FBC250"/>
<stop offset="0.82" stop-color="#FAB52A"/>
<stop offset="1" stop-color="#FAB01C"/>
</linearGradient>
<clipPath id="clip0_180_96360">
<rect width="114" height="114" fill="white"/>
</clipPath>
</defs>
</svg>
