<svg width="24" height="24" viewBox="0 0 24 24" fill="none" xmlns="http://www.w3.org/2000/svg">
<path d="M14.5303 3.59076C14.2375 3.29787 13.7626 3.29787 13.4697 3.59076L3.59101 13.4694C3.29811 13.7623 3.29811 14.2372 3.59101 14.5301L4.65922 15.5983C5.05644 15.3762 5.51441 15.2498 5.99983 15.2498C7.51861 15.2498 8.74983 16.481 8.74983 17.9998C8.74983 18.4853 8.62342 18.9432 8.40134 19.3404L9.46969 20.4088C9.76258 20.7017 10.2375 20.7017 10.5303 20.4088L20.409 10.5301C20.7019 10.2372 20.7019 9.76234 20.409 9.46945L19.3407 8.40117C18.9435 8.62335 18.4854 8.74983 17.9998 8.74983C16.481 8.74983 15.2498 7.51861 15.2498 5.99983C15.2498 5.51428 15.3763 5.0562 15.5985 4.65891L14.5303 3.59076ZM12.409 2.5301C13.2877 1.65142 14.7123 1.65142 15.591 2.5301L16.7625 3.70158C17.2732 4.21233 17.1817 4.92931 16.9242 5.36247C16.8136 5.54851 16.7498 5.76558 16.7498 5.99983C16.7498 6.69019 17.3095 7.24983 17.9998 7.24983C18.2341 7.24983 18.4512 7.18611 18.6372 7.07549C19.0704 6.81795 19.7873 6.72642 20.2981 7.23718L21.4697 8.40878C22.3484 9.28747 22.3484 10.7121 21.4697 11.5908L11.591 21.4694C10.7123 22.3481 9.28771 22.3481 8.40903 21.4694L7.23736 20.2978C6.72667 19.7871 6.81811 19.0702 7.07558 18.6371C7.18614 18.451 7.24983 18.234 7.24983 17.9998C7.24983 17.3095 6.69019 16.7498 5.99983 16.7498C5.76564 16.7498 5.54862 16.8135 5.36261 16.9241C4.92945 17.1816 4.21258 17.273 3.70189 16.7623L2.53035 15.5908C1.65167 14.7121 1.65167 13.2875 2.53035 12.4088L12.409 2.5301Z" fill="#7F85F5"/>
</svg>
