<svg width="13" height="12" viewBox="0 0 13 12" fill="none" xmlns="http://www.w3.org/2000/svg">
<path opacity="0.9" d="M6.24 0C6.79078 0 7.32203 0.0722656 7.83375 0.216797C8.34547 0.357422 8.82203 0.558594 9.26344 0.820312C9.70875 1.08203 10.113 1.39648 10.4763 1.76367C10.8435 2.12695 11.158 2.53125 11.4197 2.97656C11.6814 3.41797 11.8826 3.89453 12.0232 4.40625C12.1677 4.91797 12.24 5.44922 12.24 6C12.24 6.55078 12.1677 7.08203 12.0232 7.59375C11.8826 8.10547 11.6814 8.58398 11.4197 9.0293C11.158 9.4707 10.8435 9.875 10.4763 10.2422C10.113 10.6055 9.70875 10.918 9.26344 11.1797C8.82203 11.4414 8.34547 11.6445 7.83375 11.7891C7.32203 11.9297 6.79078 12 6.24 12C5.68922 12 5.15797 11.9297 4.64625 11.7891C4.13453 11.6445 3.65602 11.4414 3.2107 11.1797C2.7693 10.918 2.365 10.6055 1.99781 10.2422C1.63453 9.875 1.32203 9.4707 1.06031 9.0293C0.798594 8.58398 0.595469 8.10547 0.450937 7.59375C0.310312 7.08203 0.24 6.55078 0.24 6C0.24 5.44922 0.310312 4.91797 0.450937 4.40625C0.595469 3.89453 0.798594 3.41797 1.06031 2.97656C1.32203 2.53125 1.63453 2.12695 1.99781 1.76367C2.365 1.39648 2.7693 1.08203 3.2107 0.820312C3.65602 0.558594 4.13453 0.357422 4.64625 0.216797C5.15797 0.0722656 5.68922 0 6.24 0ZM5.55445 7.89258C5.64039 7.89258 5.72242 7.87695 5.80055 7.8457C5.87867 7.81055 5.94703 7.76367 6.00562 7.70508L8.5193 5.19141C8.57789 5.13281 8.62281 5.06445 8.65406 4.98633C8.68531 4.9082 8.70094 4.82812 8.70094 4.74609C8.70094 4.66016 8.68336 4.57812 8.6482 4.5C8.61695 4.42188 8.57203 4.35547 8.51344 4.30078C8.45875 4.24219 8.39234 4.19727 8.31422 4.16602C8.23609 4.13086 8.15406 4.11328 8.06812 4.11328C7.98609 4.11328 7.90406 4.12891 7.82203 4.16016C7.74391 4.19141 7.67555 4.23633 7.61695 4.29492L5.55445 6.35742L4.86305 5.66602C4.73805 5.54102 4.58766 5.47852 4.41187 5.47852C4.32594 5.47852 4.24391 5.49609 4.16578 5.53125C4.08766 5.5625 4.0193 5.60742 3.9607 5.66602C3.90211 5.72461 3.85523 5.79297 3.82008 5.87109C3.78883 5.94531 3.7732 6.02539 3.7732 6.11133C3.7732 6.19336 3.78883 6.27539 3.82008 6.35742C3.85523 6.43555 3.90211 6.50391 3.9607 6.5625L5.10328 7.70508C5.16187 7.76367 5.23023 7.81055 5.30836 7.8457C5.39039 7.87695 5.47242 7.89258 5.55445 7.89258Z" fill="#107C10"/>
</svg>
