<svg width="24" height="24" viewBox="0 0 24 24" fill="none" xmlns="http://www.w3.org/2000/svg">
<g clip-path="url(#clip0_3806_194180)">
<path d="M11.9996 1.99902C17.5233 1.99902 22.0011 6.47687 22.0011 12.0006C22.0011 17.5243 17.5233 22.0021 11.9996 22.0021C6.47589 22.0021 1.99805 17.5243 1.99805 12.0006C1.99805 6.47687 6.47589 1.99902 11.9996 1.99902ZM11.9958 10.2496C11.483 10.2499 11.0605 10.6363 11.0031 11.1336L10.9964 11.2503L11 16.7519L11.0068 16.8685C11.0649 17.3658 11.4879 17.7515 12.0007 17.7512C12.5135 17.7509 12.936 17.3645 12.9934 16.8672L13 16.7505L12.9964 11.249L12.9896 11.1323C12.9316 10.635 12.5086 10.2493 11.9958 10.2496ZM12 6.50006C11.3089 6.50006 10.7485 7.06038 10.7485 7.75158C10.7485 8.44277 11.3089 9.0031 12 9.0031C12.6912 9.0031 13.2516 8.44277 13.2516 7.75158C13.2516 7.06038 12.6912 6.50006 12 6.50006Z" fill="#5B5FC7"/>
</g>
<defs>
<clipPath id="clip0_3806_194180">
<rect width="24" height="24" fill="white"/>
</clipPath>
</defs>
</svg>
