<svg width="24" height="24" viewBox="0 0 24 24" fill="none" xmlns="http://www.w3.org/2000/svg">
<path d="M10.5 6H13.5C13.5 5.17157 12.8284 4.5 12 4.5C11.1716 4.5 10.5 5.17157 10.5 6ZM9.5 6C9.5 4.61929 10.6193 3.5 12 3.5C13.3807 3.5 14.5 4.61929 14.5 6H19.5C19.7761 6 20 6.22386 20 6.5C20 6.77614 19.7761 7 19.5 7H18.4456L17.2521 17.3439C17.0774 18.8576 15.7957 20 14.2719 20H9.72813C8.20431 20 6.92256 18.8576 6.7479 17.3439L5.55437 7H4.5C4.22386 7 4 6.77614 4 6.5C4 6.22386 4.22386 6 4.5 6H9.5ZM11 10C11 9.72386 10.7761 9.5 10.5 9.5C10.2239 9.5 10 9.72386 10 10V16C10 16.2761 10.2239 16.5 10.5 16.5C10.7761 16.5 11 16.2761 11 16V10ZM13.5 9.5C13.2239 9.5 13 9.72386 13 10V16C13 16.2761 13.2239 16.5 13.5 16.5C13.7761 16.5 14 16.2761 14 16V10C14 9.72386 13.7761 9.5 13.5 9.5Z" fill="#107C10"/>
</svg>
