<svg width="114" height="114" viewBox="0 0 114 114" fill="none" xmlns="http://www.w3.org/2000/svg">
<g clip-path="url(#clip0_180_96163)">
<path d="M75.4665 95.5096L28.9983 105.852C25.7492 106.575 22.5319 104.539 21.8057 101.311L6.14849 31.6759C5.42234 28.4428 7.46827 25.2414 10.7121 24.5188L57.1803 14.1708C60.4294 13.4483 63.6467 15.4841 64.3729 18.7119L80.0248 88.3525C80.7563 91.5856 78.7103 94.7871 75.4665 95.5096Z" fill="#6994FA"/>
<path d="M79.8926 96.3538L32.2742 96.1164C28.9456 96.1006 26.2636 93.4002 26.2795 90.0933L26.6399 18.7333C26.6558 15.4211 29.3696 12.7523 32.6929 12.7681L80.3113 13.0055C83.6399 13.0213 86.3219 15.7217 86.306 19.0286L85.9456 90.3886C85.9297 93.7008 83.2159 96.3696 79.8926 96.3538Z" fill="#95B6FC"/>
<path d="M89.5708 97.9202L42.562 90.3569C39.2758 89.8295 37.0443 86.7494 37.5743 83.4846L49.0178 13.0371C49.5478 9.7671 52.6432 7.54666 55.9242 8.07408L102.933 15.6373C106.219 16.1647 108.451 19.2448 107.921 22.5096L96.4772 92.9571C95.9471 96.2271 92.8517 98.4476 89.5708 97.9202Z" fill="#CCDCFF"/>
</g>
<defs>
<clipPath id="clip0_180_96163">
<rect width="102" height="98" fill="white" transform="translate(6 8)"/>
</clipPath>
</defs>
</svg>
