<svg width="40" height="40" viewBox="0 0 40 40" fill="none" xmlns="http://www.w3.org/2000/svg">
<rect width="40" height="40" rx="20" fill="#F8DADB"/>
<path d="M20 10C25.5228 10 30 14.4772 30 20C30 25.5228 25.5228 30 20 30C14.4772 30 10 25.5228 10 20C10 14.4772 14.4772 10 20 10ZM23.5303 16.4697L23.4462 16.3971C23.1852 16.2034 22.827 16.201 22.5636 16.3899L22.4697 16.4697L20 18.939L17.5303 16.4697L17.4462 16.3971C17.1852 16.2034 16.827 16.201 16.5636 16.3899L16.4697 16.4697L16.3971 16.5538C16.2034 16.8148 16.201 17.173 16.3899 17.4364L16.4697 17.5303L18.939 20L16.4697 22.4697L16.3971 22.5538C16.2034 22.8148 16.201 23.173 16.3899 23.4364L16.4697 23.5303L16.5538 23.6029C16.8148 23.7966 17.173 23.799 17.4364 23.6101L17.5303 23.5303L20 21.061L22.4697 23.5303L22.5538 23.6029C22.8148 23.7966 23.173 23.799 23.4364 23.6101L23.5303 23.5303L23.6029 23.4462C23.7966 23.1852 23.799 22.827 23.6101 22.5636L23.5303 22.4697L21.061 20L23.5303 17.5303L23.6029 17.4462C23.7966 17.1852 23.799 16.827 23.6101 16.5636L23.5303 16.4697L23.4462 16.3971L23.5303 16.4697Z" fill="#D13438"/>
</svg>
