<svg width="24" height="24" viewBox="0 0 24 24" fill="none" xmlns="http://www.w3.org/2000/svg">
<path d="M17.75 3C19.5449 3 21 4.45507 21 6.25L21 17.75C21 19.5449 19.5449 21 17.75 21L6.25 21C4.45508 21 3 19.5449 3 17.75L3 6.25C3 4.45507 4.45507 3 6.25 3L17.75 3ZM18.3305 19.4014L12.5247 13.7148C12.2596 13.4553 11.8501 13.4316 11.5588 13.644L11.4752 13.7148L5.66845 19.4011C5.8504 19.4651 6.04613 19.5 6.25 19.5L17.75 19.5C17.9535 19.5 18.1489 19.4653 18.3305 19.4014L12.5247 13.7148L18.3305 19.4014ZM17.75 4.5L6.25 4.5C5.2835 4.5 4.5 5.2835 4.5 6.25L4.5 17.75C4.5 17.9584 4.53643 18.1583 4.60327 18.3437L10.4258 12.643C11.2589 11.8273 12.5675 11.7885 13.4458 12.5266L13.5742 12.6431L19.3964 18.3447C19.4634 18.159 19.5 17.9588 19.5 17.75L19.5 6.25C19.5 5.2835 18.7165 4.5 17.75 4.5ZM15.2521 6.5C16.4959 6.5 17.5042 7.5083 17.5042 8.75211C17.5042 9.99592 16.4959 11.0042 15.2521 11.0042C14.0083 11.0042 13 9.99592 13 8.75211C13 7.5083 14.0083 6.5 15.2521 6.5ZM15.2521 8C14.8367 8 14.5 8.33673 14.5 8.75211C14.5 9.16749 14.8367 9.50423 15.2521 9.50423C15.6675 9.50423 16.0042 9.16749 16.0042 8.75211C16.0042 8.33673 15.6675 8 15.2521 8Z" fill="#616161"/>
</svg>
