<svg width="24" height="24" viewBox="0 0 24 24" fill="none" xmlns="http://www.w3.org/2000/svg">
<path d="M12.0004 2.00244C9.86006 2.00244 8.125 3.7375 8.125 5.87781C8.125 8.79655 9.33243 12.4294 9.93776 14.0764C10.2606 14.9547 11.097 15.5 12.0025 15.5C12.9057 15.5 13.7409 14.9575 14.0646 14.0814C14.6705 12.4417 15.8757 8.82749 15.8757 5.87781C15.8757 3.7375 14.1407 2.00244 12.0004 2.00244ZM12.0011 17.0015C10.6198 17.0015 9.5 18.1213 9.5 19.5026C9.5 20.8839 10.6198 22.0037 12.0011 22.0037C13.3825 22.0037 14.5022 20.8839 14.5022 19.5026C14.5022 18.1213 13.3825 17.0015 12.0011 17.0015Z" fill="#D13438"/>
</svg>
