<svg width="100" height="74" viewBox="0 0 100 74" fill="none" xmlns="http://www.w3.org/2000/svg">
<path fill-rule="evenodd" clip-rule="evenodd" d="M50 40C59.9411 40 68 31.9411 68 22C68 12.0589 59.9411 4 50 4C40.0589 4 32 12.0589 32 22C32 31.9411 40.0589 40 50 40ZM50 44C62.1503 44 72 34.1503 72 22C72 9.84974 62.1503 0 50 0C37.8497 0 28 9.84974 28 22C28 34.1503 37.8497 44 50 44Z" fill="#E2E2F6"/>
<path fill-rule="evenodd" clip-rule="evenodd" d="M50 42C50 40.8954 50.8989 40.0117 51.9968 39.8905C60.3426 38.9694 66.9694 32.3426 67.8905 23.9968C68.0117 22.8989 68.8954 22 70 22C71.1046 22 72.0095 22.8984 71.9104 23.9985C70.96 34.554 62.554 42.96 51.9985 43.9104C50.8984 44.0095 50 43.1046 50 42Z" fill="#5B5FC7"/>
<path d="M7.56172 69V53.499H9.43086V69H7.56172ZM16.9352 69.1934C13.8414 69.1934 11.7574 66.9697 11.7574 63.4141C11.7574 59.8477 13.8414 57.6348 16.9352 57.6348C20.0182 57.6348 22.1021 59.8477 22.1021 63.4141C22.1021 66.9697 20.0182 69.1934 16.9352 69.1934ZM16.9352 67.5498C18.9117 67.5498 20.2008 66.0459 20.2008 63.4141C20.2008 60.7822 18.9117 59.2783 16.9352 59.2783C14.9586 59.2783 13.6588 60.7822 13.6588 63.4141C13.6588 66.0459 14.9586 67.5498 16.9352 67.5498ZM27.6084 69.1934C25.3848 69.1934 23.8916 67.8506 23.8916 65.8418C23.8916 63.9297 25.3633 62.7266 27.9414 62.5762L31.1426 62.3936V61.459C31.1426 60.0947 30.2402 59.2783 28.6934 59.2783C27.2539 59.2783 26.3516 59.9551 26.1152 61.0508H24.3105C24.4395 59.1172 26.0938 57.6348 28.7363 57.6348C31.3574 57.6348 33.0117 59.0527 33.0117 61.2764V69H31.2393V67.0771H31.1963C30.5303 68.3555 29.1123 69.1934 27.6084 69.1934ZM28.0273 67.6035C29.7891 67.6035 31.1426 66.3682 31.1426 64.7568V63.8438L28.1562 64.0264C26.6523 64.123 25.793 64.7891 25.793 65.8418C25.793 66.9053 26.6846 67.6035 28.0273 67.6035ZM39.9682 69.1934C37.1215 69.1934 35.1879 66.916 35.1879 63.4141C35.1879 59.9121 37.1107 57.6348 39.9252 57.6348C41.5258 57.6348 42.8148 58.4189 43.4809 59.6436H43.5238V53.499H45.393V69H43.6098V67.1094H43.5775C42.8578 68.3984 41.5795 69.1934 39.9682 69.1934ZM40.3227 59.2783C38.3461 59.2783 37.1 60.8896 37.1 63.4141C37.1 65.9492 38.3461 67.5498 40.3227 67.5498C42.2455 67.5498 43.5346 65.917 43.5346 63.4141C43.5346 60.9219 42.2455 59.2783 40.3227 59.2783ZM49.2986 55.8408C48.6541 55.8408 48.1277 55.3145 48.1277 54.6699C48.1277 54.0146 48.6541 53.499 49.2986 53.499C49.9539 53.499 50.4695 54.0146 50.4695 54.6699C50.4695 55.3145 49.9539 55.8408 49.2986 55.8408ZM48.3641 69V57.8281H50.2332V69H48.3641ZM53.1076 69V57.8281H54.8693V59.6113H54.9123C55.5354 58.4082 56.7277 57.6348 58.4572 57.6348C60.9064 57.6348 62.3244 59.2139 62.3244 61.749V69H60.4553V62.082C60.4553 60.2773 59.6066 59.2891 57.8879 59.2891C56.1262 59.2891 54.9768 60.5352 54.9768 62.4258V69H53.1076ZM69.6676 73.2109C67.2076 73.2109 65.2633 71.8252 64.9518 69.9238H66.8746C67.2398 70.9443 68.3463 71.6211 69.7428 71.6211C71.6764 71.6211 72.8473 70.5039 72.8473 68.8389V67.0771H72.8043C72.1168 68.291 70.7955 69.0859 69.2271 69.0859C66.3805 69.0859 64.5113 66.8408 64.5113 63.3711C64.5113 59.8691 66.3805 57.6348 69.2701 57.6348C70.8492 57.6348 72.1598 58.4082 72.901 59.708H72.9332V57.8281H74.7164V68.7744C74.7164 71.4385 72.7506 73.2109 69.6676 73.2109ZM69.6031 67.4424C71.5475 67.4424 72.8473 65.8311 72.8473 63.3711C72.8473 60.9111 71.5475 59.2783 69.6031 59.2783C67.6803 59.2783 66.4234 60.8682 66.4234 63.3711C66.4234 65.874 67.6803 67.4424 69.6031 67.4424ZM79.084 69.1074C78.3965 69.1074 77.8594 68.5703 77.8594 67.8828C77.8594 67.1953 78.3965 66.6582 79.084 66.6582C79.7715 66.6582 80.3086 67.1953 80.3086 67.8828C80.3086 68.5703 79.7715 69.1074 79.084 69.1074ZM85.0199 69.1074C84.3324 69.1074 83.7953 68.5703 83.7953 67.8828C83.7953 67.1953 84.3324 66.6582 85.0199 66.6582C85.7074 66.6582 86.2445 67.1953 86.2445 67.8828C86.2445 68.5703 85.7074 69.1074 85.0199 69.1074ZM90.9559 69.1074C90.2684 69.1074 89.7312 68.5703 89.7312 67.8828C89.7312 67.1953 90.2684 66.6582 90.9559 66.6582C91.6434 66.6582 92.1805 67.1953 92.1805 67.8828C92.1805 68.5703 91.6434 69.1074 90.9559 69.1074Z" fill="#212121"/>
</svg>
