<svg width="24" height="24" viewBox="0 0 24 24" fill="none" xmlns="http://www.w3.org/2000/svg">
<path d="M19.9998 16.2461C19.9998 15.0041 18.9929 13.9972 17.7509 13.9972H6.24912C5.0071 13.9972 4.00024 15.0041 4.00024 16.2461V16.8238C4.00024 17.7166 4.31876 18.5801 4.89852 19.259C6.46483 21.0932 8.85084 21.9984 11.9967 21.9984C15.1421 21.9984 17.5293 21.0935 19.0986 19.26C19.6802 18.5807 19.9998 17.7158 19.9998 16.8215V16.2461ZM6.24912 15.4972H17.7509C18.1645 15.4972 18.4998 15.8325 18.4998 16.2461V16.8215C18.4998 17.3581 18.308 17.877 17.9591 18.2846C16.7026 19.7526 14.735 20.4984 11.9967 20.4984C9.2584 20.4984 7.29252 19.7526 6.03921 18.2849C5.69135 17.8776 5.50024 17.3595 5.50024 16.8238V16.2461C5.50024 15.8325 5.83553 15.4972 6.24912 15.4972ZM16.9967 7.00195C16.9967 4.24053 14.7581 2.00195 11.9967 2.00195C10.3462 2.00195 8.88249 2.80167 7.9719 4.03476C7.90114 4.01263 7.82586 4.00071 7.7478 4.00071L5.25 4.00071C4.83579 4.0007 4.5 4.33649 4.5 4.75071L4.5 10.2495C4.5 11.7683 5.73125 12.9995 7.25005 12.9995L7.50001 12.9995V12.9952C7.50345 12.9952 7.50689 12.9952 7.51033 12.9952C8.06124 12.9952 8.50784 12.5486 8.50784 11.9977C8.50784 11.4468 8.06124 11.0002 7.51033 11.0002C7.19095 11.0002 6.90664 11.1503 6.72406 11.3838C6.29649 11.1852 6 10.752 6 10.2495V9.99902H6.7478C7.12848 9.99902 7.48076 9.87748 7.76796 9.67108C8.65395 11.0718 10.2167 12.002 11.9967 12.002C14.7581 12.002 16.9967 9.76338 16.9967 7.00195ZM6.9978 6.896C6.99707 6.93123 6.9967 6.96655 6.9967 7.00195C6.9967 7.03736 6.99707 7.07268 6.9978 7.10791V8.24902C6.9978 8.38709 6.88587 8.49902 6.7478 8.49902H6L6 5.50071H6.9978L6.9978 6.896ZM8.4978 7.09058V6.91333C8.54483 5.02128 10.0933 3.50195 11.9967 3.50195C13.9297 3.50195 15.4967 5.06896 15.4967 7.00195C15.4967 8.93495 13.9297 10.502 11.9967 10.502C10.0933 10.502 8.54483 8.98262 8.4978 7.09058Z" fill="#5B5FC7"/>
</svg>
